<?xml version="1.0" encoding="UTF-8" standalone="no"?>
<!-- Created with Inkscape (http://www.inkscape.org/) -->

<svg
   width="210mm"
   height="297mm"
   viewBox="0 0 210 297"
   version="1.1"
   id="svg1"
   inkscape:version="1.4.2 (f4327f4, 2025-05-13)"
   sodipodi:docname="icon.svg"
   xml:space="preserve"
   xmlns:inkscape="http://www.inkscape.org/namespaces/inkscape"
   xmlns:sodipodi="http://sodipodi.sourceforge.net/DTD/sodipodi-0.dtd"
   xmlns="http://www.w3.org/2000/svg"
   xmlns:svg="http://www.w3.org/2000/svg"><sodipodi:namedview
     id="namedview1"
     pagecolor="#505050"
     bordercolor="#ffffff"
     borderopacity="1"
     inkscape:showpageshadow="0"
     inkscape:pageopacity="0"
     inkscape:pagecheckerboard="1"
     inkscape:deskcolor="#505050"
     inkscape:document-units="mm"
     inkscape:zoom="1.0823864"
     inkscape:cx="700.7664"
     inkscape:cy="401.88976"
     inkscape:window-width="2530"
     inkscape:window-height="1398"
     inkscape:window-x="1263"
     inkscape:window-y="5"
     inkscape:window-maximized="0"
     inkscape:current-layer="layer1"
     inkscape:export-bgcolor="#ffffff00" /><defs
     id="defs1"><clipPath
       clipPathUnits="userSpaceOnUse"
       id="clipPath12"><circle
         style="fill:none;fill-opacity:1;stroke:#696969;stroke-width:3;stroke-dasharray:none;stroke-opacity:1"
         id="circle13"
         cx="121.24445"
         cy="152.53334"
         r="18.822222" /></clipPath></defs><g
     inkscape:label="Layer 1"
     inkscape:groupmode="layer"
     id="layer1"><path
       id="rect1"
       style="fill:#ffffff;fill-opacity:1;stroke:#000000;stroke-width:3;stroke-dasharray:none;stroke-opacity:1"
       d="m 155.69736,64.119615 h -49.59474 c -4.39158,0 -7.92702,4.276056 -7.92702,9.587569 v 24.091834 c 0,5.311512 3.53544,9.587572 7.92702,9.587572 h 6.19935 l -0.30489,14.50427 12.70357,-14.50427 h 6.19934 24.79737 c 4.39158,0 7.92703,-4.27606 7.92703,-9.587572 V 73.707184 c 0,-5.311513 -3.53545,-9.587569 -7.92703,-9.587569 z"
       sodipodi:nodetypes="sssssccccssss" /><path
       id="rect2"
       style="fill:#00ff0c;fill-opacity:1;stroke:#000000;stroke-width:3;stroke-dasharray:none;stroke-opacity:1"
       d="m 119.16649,73.740867 c -1.79747,0 -3.2445,1.447053 -3.2445,3.244514 v 6.303628 h -6.30364 c -1.79746,0 -3.24451,1.447046 -3.24451,3.244506 0,1.797461 1.44705,3.244514 3.24451,3.244514 h 6.30364 v 6.303629 c 0,1.797463 1.44703,3.244501 3.2445,3.244501 1.79747,0 3.24451,-1.447038 3.24451,-3.244501 v -6.303629 h 6.30363 c 1.79746,0 3.24451,-1.447053 3.24451,-3.244514 0,-1.79746 -1.44705,-3.244506 -3.24451,-3.244506 H 122.411 v -6.303628 c 0,-1.797461 -1.44704,-3.244514 -3.24451,-3.244514 z" /><path
       style="fill:none;fill-opacity:1;stroke:#000000;stroke-width:2;stroke-dasharray:none;stroke-opacity:1"
       d="m 138.28141,72.20219 h 18.39058"
       id="path14" /><path
       style="fill:none;fill-opacity:1;stroke:#000000;stroke-width:2;stroke-dasharray:none;stroke-opacity:1"
       d="m 138.28141,76.357746 h 13.9872"
       id="path15" /><path
       style="fill:none;fill-opacity:1;stroke:#000000;stroke-width:2;stroke-dasharray:none;stroke-opacity:1"
       d="m 138.28141,80.757746 h 21.49884"
       id="path16" /><path
       style="fill:none;fill-opacity:1;stroke:#000000;stroke-width:2;stroke-dasharray:none;stroke-opacity:1"
       d="m 138.28141,84.913302 h 14.76427"
       id="path17" /><path
       style="fill:none;fill-opacity:1;stroke:#000000;stroke-width:2;stroke-dasharray:none;stroke-opacity:1"
       d="m 138.28141,89.148086 h 17.27057"
       id="path24"
       inkscape:export-filename="icon128.png"
       inkscape:export-xdpi="47.498287"
       inkscape:export-ydpi="47.498287" /></g></svg>
