<?xml version="1.0" encoding="UTF-8" standalone="no"?>
<!-- Created with Inkscape (http://www.inkscape.org/) -->

<svg
   width="210mm"
   height="297mm"
   viewBox="0 0 210 297"
   version="1.1"
   id="svg1"
   inkscape:version="1.4.2 (f4327f4, 2025-05-13)"
   sodipodi:docname="icon.svg"
   xml:space="preserve"
   xmlns:inkscape="http://www.inkscape.org/namespaces/inkscape"
   xmlns:sodipodi="http://sodipodi.sourceforge.net/DTD/sodipodi-0.dtd"
   xmlns="http://www.w3.org/2000/svg"
   xmlns:svg="http://www.w3.org/2000/svg"><sodipodi:namedview
     id="namedview1"
     pagecolor="#505050"
     bordercolor="#ffffff"
     borderopacity="1"
     inkscape:showpageshadow="0"
     inkscape:pageopacity="0"
     inkscape:pagecheckerboard="1"
     inkscape:deskcolor="#505050"
     inkscape:document-units="mm"
     inkscape:zoom="1.0823864"
     inkscape:cx="700.7664"
     inkscape:cy="402.35171"
     inkscape:window-width="1854"
     inkscape:window-height="1159"
     inkscape:window-x="1"
     inkscape:window-y="1"
     inkscape:window-maximized="0"
     inkscape:current-layer="layer1"
     inkscape:export-bgcolor="#ffffff00" /><defs
     id="defs1"><clipPath
       clipPathUnits="userSpaceOnUse"
       id="clipPath12"><circle
         style="fill:none;fill-opacity:1;stroke:#696969;stroke-width:3;stroke-dasharray:none;stroke-opacity:1"
         id="circle13"
         cx="121.24445"
         cy="152.53334"
         r="18.822222" /></clipPath></defs><g
     inkscape:label="Layer 1"
     inkscape:groupmode="layer"
     id="layer1"><path
       id="rect1"
       style="fill:#ffffff;fill-opacity:1;stroke:#000000;stroke-width:3;stroke-dasharray:none;stroke-opacity:1"
       d="m 155.69736,45.052948 h -49.59474 c -4.39158,0 -7.92702,4.276056 -7.92702,9.587569 v 24.091834 c 0,5.311512 3.53544,9.587572 7.92702,9.587572 h 6.19935 l -0.30489,14.504267 12.70357,-14.504267 h 6.19934 24.79737 c 4.39158,0 7.92703,-4.27606 7.92703,-9.587572 V 54.640517 c 0,-5.311513 -3.53545,-9.587569 -7.92703,-9.587569 z"
       sodipodi:nodetypes="sssssccccssss" /><path
       id="rect2"
       style="fill:#00ff0c;fill-opacity:1;stroke:#000000;stroke-width:3;stroke-dasharray:none;stroke-opacity:1"
       d="m 119.16649,54.6742 c -1.79747,0 -3.2445,1.447053 -3.2445,3.244514 v 6.303628 h -6.30364 c -1.79746,0 -3.24451,1.447046 -3.24451,3.244506 0,1.797461 1.44705,3.244514 3.24451,3.244514 h 6.30364 v 6.303629 c 0,1.797463 1.44703,3.244501 3.2445,3.244501 1.79747,0 3.24451,-1.447038 3.24451,-3.244501 v -6.303629 h 6.30363 c 1.79746,0 3.24451,-1.447053 3.24451,-3.244514 0,-1.79746 -1.44705,-3.244506 -3.24451,-3.244506 H 122.411 v -6.303628 c 0,-1.797461 -1.44704,-3.244514 -3.24451,-3.244514 z" /><path
       style="fill:none;fill-opacity:1;stroke:#000000;stroke-width:2;stroke-dasharray:none;stroke-opacity:1"
       d="m 138.28141,53.135523 h 18.39058"
       id="path14" /><path
       style="fill:none;fill-opacity:1;stroke:#000000;stroke-width:2;stroke-dasharray:none;stroke-opacity:1"
       d="m 138.28141,57.291079 h 13.9872"
       id="path15" /><path
       style="fill:none;fill-opacity:1;stroke:#000000;stroke-width:2;stroke-dasharray:none;stroke-opacity:1"
       d="m 138.28141,61.691079 h 21.49884"
       id="path16" /><path
       style="fill:none;fill-opacity:1;stroke:#000000;stroke-width:2;stroke-dasharray:none;stroke-opacity:1"
       d="m 138.28141,65.846635 h 14.76427"
       id="path17" /><path
       style="fill:none;fill-opacity:1;stroke:#000000;stroke-width:2;stroke-dasharray:none;stroke-opacity:1"
       d="m 138.28141,70.081419 h 17.27057"
       id="path24"
       inkscape:export-filename="icon16.png"
       inkscape:export-xdpi="5.9372859"
       inkscape:export-ydpi="5.9372859" /><path
       id="path29"
       style="fill:#ffffff;fill-opacity:1;stroke:#000000;stroke-width:3;stroke-dasharray:none;stroke-opacity:1"
       d="m 155.69736,131.83073 h -49.59474 c -4.39158,0 -7.92702,4.27605 -7.92702,9.58756 v 24.09184 c 0,5.31151 3.53544,9.58757 7.92702,9.58757 h 6.19935 l -0.30489,14.50427 12.70357,-14.50427 h 6.19934 24.79737 c 4.39158,0 7.92703,-4.27606 7.92703,-9.58757 v -24.09184 c 0,-5.31151 -3.53545,-9.58756 -7.92703,-9.58756 z"
       sodipodi:nodetypes="sssssccccssss"
       inkscape:export-filename="CommentIcon48"
       inkscape:export-xdpi="17.811857"
       inkscape:export-ydpi="17.811857" /><path
       style="fill:none;fill-opacity:1;stroke:#000000;stroke-width:2;stroke-dasharray:none;stroke-opacity:1"
       d="m 108.21474,139.66886 h 33.44601"
       id="path31" /><path
       style="fill:none;fill-opacity:1;stroke:#000000;stroke-width:2;stroke-dasharray:none;stroke-opacity:1"
       d="m 108.21474,143.82442 h 25.4378"
       id="path32" /><path
       style="fill:none;fill-opacity:1;stroke:#000000;stroke-width:2;stroke-dasharray:none;stroke-opacity:1"
       d="m 108.21474,148.22442 h 39.09884"
       id="path33" /><path
       style="fill:none;fill-opacity:1;stroke:#000000;stroke-width:2;stroke-dasharray:none;stroke-opacity:1"
       d="m 108.21474,152.37997 h 26.85102"
       id="path34" /><path
       style="fill:none;fill-opacity:1;stroke:#000000;stroke-width:2;stroke-dasharray:none;stroke-opacity:1"
       d="m 108.21474,156.61476 h 31.4091"
       id="path35"
       inkscape:export-filename="icon16.png"
       inkscape:export-xdpi="5.9372859"
       inkscape:export-ydpi="5.9372859" /><path
       style="fill:none;fill-opacity:1;stroke:#000000;stroke-width:2;stroke-dasharray:none;stroke-opacity:1"
       d="m 108.21474,161.17998 h 25.4378"
       id="path36" /><path
       style="fill:none;fill-opacity:1;stroke:#000000;stroke-width:2;stroke-dasharray:none;stroke-opacity:1"
       d="m 108.21474,165.82442 h 33.44601"
       id="path37" /></g></svg>
